<svg xmlns="http://www.w3.org/2000/svg" xmlns:xlink="http://www.w3.org/1999/xlink" width="1924.026" height="1924.026" viewBox="0 0 1924.026 1924.026">
  <defs>
    <clipPath id="clip-path">
      <circle id="Ellipse_3" data-name="Ellipse 3" cx="962.013" cy="962.013" r="962.013" fill="none" stroke="#707070" stroke-width="11"/>
    </clipPath>
  </defs>
  <g id="Earth_with_map" data-name="Earth with map" transform="translate(-228.068 -18.333)">
    <g id="Group_7" data-name="Group 7" transform="translate(228.068 18.333)">
      <g id="Group_6" data-name="Group 6">
        <g id="Group_4" data-name="Group 4">
          <g id="Group_3" data-name="Group 3">
            <g id="Group_2" data-name="Group 2" clip-path="url(#clip-path)">
              <g id="Path_81" data-name="Path 81" fill="#5482ff">
                <path d="M962.013,0c531.305,0,962.013,430.708,962.013,962.013s-430.708,962.013-962.013,962.013S0,1493.318,0,962.013,430.708,0,962.013,0Z" stroke="none"/>
                <path d="M 962.0128173828125 15.0001220703125 C 439.828369140625 15.0001220703125 15.0001220703125 439.828369140625 15.0001220703125 962.0128173828125 C 15.0001220703125 1484.197265625 439.828369140625 1909.025512695313 962.0128173828125 1909.025512695313 C 1484.197265625 1909.025512695313 1909.025512695313 1484.197265625 1909.025512695313 962.0128173828125 C 1909.025512695313 439.828369140625 1484.197265625 15.0001220703125 962.0128173828125 15.0001220703125 M 962.0128173828125 0.0001220703125 C 1493.31787109375 0.0001220703125 1924.025512695313 430.707763671875 1924.025512695313 962.0128173828125 C 1924.025512695313 1493.31787109375 1493.31787109375 1924.025512695313 962.0128173828125 1924.025512695313 C 430.707763671875 1924.025512695313 0.0001220703125 1493.31787109375 0.0001220703125 962.0128173828125 C 0.0001220703125 430.707763671875 430.707763671875 0.0001220703125 962.0128173828125 0.0001220703125 Z" stroke="none" fill="rgba(255,255,255,0.04)"/>
              </g>
              <circle id="Ellipse_2" data-name="Ellipse 2" cx="962.013" cy="962.013" r="962.013" transform="translate(329.668 208.211)" fill="#5444ff"/>
            </g>
          </g>
        </g>
      </g>
      <g id="Group_117" data-name="Group 117" transform="translate(112.898 451.896)">
        <g id="Group_152" data-name="Group 152" transform="translate(-457.397 -287.931)">
          <path id="Path_87" data-name="Path 87" d="M734,405" transform="translate(201.334 87.533)" fill="#fff"/>
          <rect id="Rectangle_128" data-name="Rectangle 128" width="36.473" height="51.305" rx="18" transform="matrix(0.646, 0.764, -0.764, 0.646, 493.501, 466.456)" fill="#02ff3f" stroke="#32965f" stroke-miterlimit="10" stroke-width="7"/>
          <path id="Path_88" data-name="Path 88" d="M2120.836,434.821v-56.6c.024-.346.35-6.807-4.485-9.987a9.824,9.824,0,0,0-5.4-1.553H2089.81l-3.383-.016a6.335,6.335,0,0,1-1.746-.167,6.791,6.791,0,0,1-3.5-2.186q-1.886-2.084-3.775-4.171L2047.383,324.8l-2.635-3.1a19.072,19.072,0,0,0-10.472-7.175,16.939,16.939,0,0,0-4.105-.475H1691a25.569,25.569,0,0,0-9.7,2.124,24.808,24.808,0,0,0-3.61,1.957l-2.458,1.722-68.2,47.778h0a36.443,36.443,0,0,1-3.777,2.4,19.512,19.512,0,0,1-5.971,2.361,16.425,16.425,0,0,1-2.939.3H1413.866c-.113,0-1.88.041-4.233-.065-2.618-.119-4.186-.339-5.744-1.247a8.218,8.218,0,0,1-1.121-.784l-82.136-72.969h0l-3.306-2.936c-1.467-1.45-7.217-6.955-14.354-9.378a41.3,41.3,0,0,0-6.589-1.558,36.266,36.266,0,0,0-6.126-.335H1022.177q-8.493.026-16.865.129a54.538,54.538,0,0,0-14.519,1.28,37.886,37.886,0,0,0-8.369,2.757,35.589,35.589,0,0,0-8.071,5.266l-9.626,9.772-57.2,62.065c-3.608,3.782-8.395,5.5-12.46,4.229a9.547,9.547,0,0,1-3.906-2.411l-.4-.439q-1.331-1.439-2.659-2.879h0l-25.838-27.974q-1.163-1.259-2.327-2.52l-3.641-3.94v0a22.844,22.844,0,0,0-17.849-8H763.113c-1.1.009-2.729.036-4.7.11a28.187,28.187,0,0,0-5.11.413,14.431,14.431,0,0,0-5.332,2.669,23.057,23.057,0,0,0-1.827,1.689l-.005,0L744.58,327.2l-1.6,1.6h0l-69.747,69.748-3.2,3.2c-.581.6-5.626,5.76-8.355,4.355a2.119,2.119,0,0,1-.518-.375q-1.535-1.625-3.07-3.249h0l-3.407-3.6a10.179,10.179,0,0,0-14.872-.566l-.107.1-.026.015-2.8,2.642-.045.043h0L618.643,418.3l-.047.045-3.192,3.017,0,0-.043.04a10.27,10.27,0,0,0-2.607,4.313c-1.72,5.824,2.822,10.926,3.2,11.334l.036.04,0,0,3.46,3.663.064.067,24.1,25.5,0,0,.036.038a18.4,18.4,0,0,0,13.759,5.127h.083l.01,0h82.679c.017,0,.034-.005.052-.005h.113c2.5.114,9,.052,13.876-4.458a15.423,15.423,0,0,0,2.109-2.4l.055-.079.021-.022,3.495-4.953.184-.261h0l4.762-6.749,0,0a11.854,11.854,0,0,0,1.517-9.191,11.442,11.442,0,0,0-3.815-5.844l-.079-.06-.029-.026-1.706-1.268-.057-.043h0l-.463-.344-3.06-2.279a4.491,4.491,0,0,1-1.228-1.749c-.715-1.876-.036-4.181,1.648-5.99q.98-1.1,1.959-2.2l19.238-21.6L783,397.243a21.087,21.087,0,0,1,14.452-5.791l5.626-.026v-.007h19.971a14.35,14.35,0,0,1,11.15,5.318q2,2.25,4.007,4.5l14.354,16.117.029.026.07.079a8.041,8.041,0,0,1,1.429,3.615c.6,4.785-3.679,8.211-4.021,8.477l-.1.095-.022.016L802.7,475.107h0l-5,4.805-.127.11a36.593,36.593,0,0,1-9.977,6.4c-5.177,2.112-9.839,2.31-13.783,2.478H642.485a2.474,2.474,0,0,0-.253.026,23.98,23.98,0,0,0-17.575,8.787l-.067.072-20.924,22.661-.019.019c-1.228,1.329-1.636,1.665-2.239,2.425a18.867,18.867,0,0,0-2.152,3.457c-1.319,2.834-1.336,5.478-1.362,9.5,0,.189,0,.4,0,.655,0,.043-.012.083-.012.124v49.634a18.058,18.058,0,0,1-18.059,18.059H527.849A22.873,22.873,0,0,0,505.008,627.2v69.517c-.057,1.1-.437,12.01,8.13,18.6a21.157,21.157,0,0,0,12.509,4.24H582.4c.155-.005.311-.014.468-.026,2.085-.165,5.45-1.044,9.162-5.029l2.845-3.049h0L672.681,628.1h0c1.9-2.339,3.675-2.865,4.762-2.974.069-.007.138-.014.206-.017h76.465a3.981,3.981,0,0,1,1.775.334c1.813.815,2.891,3.065,2.864,5.7V636.1h0V678.07h0v2.889a4.42,4.42,0,0,1-.036.537,5.832,5.832,0,0,1-2.5,3.741h0l-7.15,6.186h0a6.6,6.6,0,0,0-2.048,2.912c-1.286,3.77,1.687,7.2,1.854,7.383l10.249,11.291h0l2.867,3.158a9.748,9.748,0,0,0,14.148-.034q1.677-1.723,3.357-3.447l26.032-26.727h0c.158-.184.313-.377.463-.58a11.067,11.067,0,0,0,1.933-6.907V647.408a5.567,5.567,0,0,1,.048-.667,7.044,7.044,0,0,1,2.906-4.442l43.471-35.539a10.614,10.614,0,0,1,8.6-2.368,9.89,9.89,0,0,1,5.058,2.81l40.816,44.959q.857,1.063,1.715,2.124a.449.449,0,0,1,.1.277.457.457,0,0,1-.423.454q-1.945,0-3.9,0H883.1c-.28,0-.555.014-.82.04-3.79.37-6.5,3.206-7.934,5.068l-20.456,22.085-2.714,2.931c-.444.451-4.4,4.611-3.4,10.28a11.484,11.484,0,0,0,3.429,6.264q2.023,1.876,4.047,3.749l20.191,18.7h0l4.363,4.042a15.08,15.08,0,0,0,1.71,1.29,16.968,16.968,0,0,0,9.788,2.54h32.463c3.586-.117,6.444.827,7.082,2.618a2.4,2.4,0,0,1,.136.91v54.131a9.232,9.232,0,0,0,.158,2.812c.279,1.293.97,3.087,5.332,7.492h0c.972.982,2.349,2.317,4.09,3.832h0l103.158,96.633q1.357,1.272,2.717,2.545a10.109,10.109,0,0,1,1.249,1.5,10.567,10.567,0,0,1,1.732,4.984V927.09a12.628,12.628,0,0,0,.844,5.032,12.425,12.425,0,0,0,1.467,2.705h0l.674.707,1.6,1.677h0l49.99,52.311,2.029,2.122a20.19,20.19,0,0,0,13.243,5.872,20.553,20.553,0,0,0,15.364-6.437l3.907-4.291,67.489-74.1,2.8-3.077a10.562,10.562,0,0,0,1.938-4.962c.714-6.627-5.7-11.188-6.033-11.413l-2.195-1.644-2.084-1.558-2.888-2.16q-1.9-1.47-4.248-3.178l-79.5-59.471q-.689-.516-1.378-1.03a4.577,4.577,0,0,1-1.717-2.186,4.93,4.93,0,0,1,.578-4.2l2.31-2.975,1.094-1.41,13.372-17.221.643-.829,1.28-1.648c.026-.033.071-.1.139-.174a3.148,3.148,0,0,1,1.546-.887,9.7,9.7,0,0,1,2.673-.394h153.19a7.807,7.807,0,0,1,5.755,2.334l1.87,1.868,60,60v0q1.633,1.63,3.264,3.264a7.424,7.424,0,0,1,1.231,1.544,7.768,7.768,0,0,1,1.063,4.119v4.282h0v68.1h0V942.6a12.538,12.538,0,0,0,3.388,8.921h0l67.708,74.579q1.586,1.746,3.171,3.495a14.536,14.536,0,0,0,6.441,4.071c8.464,2.506,15.83-4.427,16.249-4.835l4.553-4.222,22.828-21.171,2.4-2.229h0a8.757,8.757,0,0,0,.932-1.08,10.294,10.294,0,0,0,1.827-6.341V934.057c0-.05.009-.1.014-.15.134-1.23.757-3.036,3.147-4.972q1.94-1.574,3.878-3.149l41.375-33.608a9.465,9.465,0,0,1,12.545.643h0l136.662,139.11q3.459,3.521,6.917,7.041a22.822,22.822,0,0,0,9.488,5.535c12.189,3.467,22.692-5.277,23.8-6.229l4.51-3.932h0l31.984-27.886a9.555,9.555,0,0,0,3.576-5.545,8.247,8.247,0,0,0,.145-1.723V939.605c0-.07,0-.139,0-.21.017-2.267.889-5.62,5.144-9.53l3.528-3.325h0l23.263-21.93c3.985-3.6,7.854-7.217,11.669-11l22.308-21.029q.694-.655,1.39-1.309a4.394,4.394,0,0,0,.339-.327c2.86-3.151,3.2-8.125,3.214-12.447V782.1a16.5,16.5,0,0,0-.478-4.209,16.833,16.833,0,0,0-3.373-6.654l-21.8-28.426h0a4.366,4.366,0,0,1-.779-2.195,4.5,4.5,0,0,1,1.006-3.073h0l21.02-23.865h0l2.337-2.654a5.292,5.292,0,0,1,.977-.9,2.792,2.792,0,0,1,.812-.43,1.092,1.092,0,0,1,1.567.714,2.4,2.4,0,0,1,.2.979c.034.807.059,1.427.078,1.986V734.91a11.573,11.573,0,0,0,.655,4.152,13.581,13.581,0,0,0,1.641,3.091,20.038,20.038,0,0,0,2.452,3.023l23.137,25.485q1.305,1.437,2.609,2.872c3.484,3.937,6.677,4.79,8.608,4.955.148.014.294.022.44.029h19.72a10.033,10.033,0,0,0,10.089-9.955V745.424a16.023,16.023,0,0,0-2.913-10.5,12.987,12.987,0,0,0-.941-1.1l-2.692-2.965-11.21-12.347h0a4.02,4.02,0,0,1-.593-.812c-2.1-3.8,2.788-9.894,3.431-10.682l.745-.881,22.713-26.875a12.245,12.245,0,0,0,2.831-6.075c.053-.371.086-.733.1-1.08v-181.5a26.278,26.278,0,0,1,.887-6.769,26.925,26.925,0,0,1,5.951-10.942q.985-1.052,1.967-2.109l25.408-27.222a4.827,4.827,0,0,1,1.066-.92,4.973,4.973,0,0,1,2.695-.746h36.449a8.321,8.321,0,0,1,6.1,2.563,8.19,8.19,0,0,1,2.129,5.4v65.326a14.514,14.514,0,0,0,2.97,9.268,12.657,12.657,0,0,0,1.878,1.88l2.206,1.667,19.993,15.1h0q1.837,1.388,3.672,2.772c.833.655,6.745,5.149,13.288,3.178a12.261,12.261,0,0,0,4.174-2.236h0l10.09-8.632q.493-.423.986-.843l.955-.817h0a17.127,17.127,0,0,0,1.964-1.931,12.264,12.264,0,0,0,3.211-6.176,9.7,9.7,0,0,0,.11-1.567V464.427h0v-5.012a6.709,6.709,0,0,1,.65-2.85c1.455-3,5.268-4.707,9.693-4.578H2108.4a11.984,11.984,0,0,0,6.227-1.574c6.344-3.72,6.219-12.223,6.205-12.632Z" transform="translate(36.476 0)" fill="#02ff3f" stroke="#32965f" stroke-miterlimit="10" stroke-width="7"/>
          <path id="Path_89" data-name="Path 89" d="M578.99,429.211l.024.007a31.739,31.739,0,0,0-8.078-15.135c-.136-.139-.239-.3-.382-.428l-.733-.683,0,0h0l-25.167-23.461A20.954,20.954,0,0,0,511.389,364.6l-19.935,20.425a20.966,20.966,0,0,0,.361,29.647c.423.413.867.789,1.314,1.159a21.313,21.313,0,0,0,1.515,1.568l16.15,15.054v.05a4.768,4.768,0,0,1,1.825,3.729v13.559a4.771,4.771,0,0,1-1.825,3.729v.034l-21.952,16.485a.7.7,0,0,0-.117.131,8.482,8.482,0,0,0-3.417,6.785v22.5a8.52,8.52,0,0,0,8.52,8.519H554.1a8.52,8.52,0,0,0,8.52-8.519V480.136a5.148,5.148,0,0,1,5.148-5.148c.022,0,.043.007.065.007v-.007h2.98a8.77,8.77,0,0,0,8.77-8.77V433.573A16.882,16.882,0,0,0,578.99,429.211Z" transform="translate(22.308 53.897)" fill="#02ff3f" stroke="#32965f" stroke-miterlimit="10" stroke-width="7"/>
          <path id="Path_90" data-name="Path 90" d="M1378.474,536.387" transform="translate(665.269 182.114)" fill="#0c00e3"/>
          <path id="Path_91" data-name="Path 91" d="M1421.661,541.883l.072-.084-.072-.064V518.859a23.463,23.463,0,0,0-1.512-9.251l-.029-.072c-.076-.2-.141-.389-.223-.585-.055-.131-.121-.241-.177-.368q-.245-.562-.531-1.106c-.06-.119-.115-.256-.177-.372h-.024a17.331,17.331,0,0,0-3.715-4.639l-35.011-30.8a11.3,11.3,0,0,0-15.9,1.018l-12.62,14.347a6.594,6.594,0,0,0-.786,1.111,5.006,5.006,0,0,0-.884,2.84v19.17a7.327,7.327,0,0,0,.881,3.428c.081.179.184.347.282.518.057.088.1.181.161.265a5.624,5.624,0,0,0,.827,1c.017.017.033.038.052.055.038.038.067.081.107.117l20.772,18.27a4.828,4.828,0,0,1-.094,7.193l0,0L1353.1,561.3h0a29.138,29.138,0,0,0-11.375,24.948h0v70.9a27.023,27.023,0,0,0,26.944,26.943c.134,0,.261-.017.394-.019s.261.019.394.019h13.028a13.168,13.168,0,0,0,13.13-13.13V602.828a23.959,23.959,0,0,1,3.426-11.21,23.483,23.483,0,0,1,4.713-5.548h0l11.8-10.531q.49-.452.928-.918c4.95-5.294,5.471-12.731,5.186-17.778Z" transform="translate(638.777 133.516)" fill="#02ff3f" stroke="#32965f" stroke-miterlimit="10" stroke-width="7"/>
          <rect id="Rectangle_129" data-name="Rectangle 129" width="24.473" height="35.305" rx="12.236" transform="matrix(0.646, 0.764, -0.764, 0.646, 749.028, 677.949)" fill="#02ff3f" stroke="#32965f" stroke-miterlimit="10" stroke-width="7"/>
        </g>
      </g>
    </g>
  </g>
</svg>
