<svg xmlns="http://www.w3.org/2000/svg" xmlns:xlink="http://www.w3.org/1999/xlink" width="368.429" height="399.5" viewBox="0 0 368.429 399.5">
  <defs>
    <clipPath id="clip-path">
      <circle id="Ellipse_3" data-name="Ellipse 3" cx="168.236" cy="168.236" r="168.236" fill="none"/>
    </clipPath>
  </defs>
  <g id="Group_166" data-name="Group 166" transform="translate(-278 -333.5)">
    <g id="Earth" transform="translate(282.239 370.392)">
      <g id="Group_7" data-name="Group 7" transform="translate(0 0)">
        <g id="Group_6" data-name="Group 6">
          <g id="Group_4" data-name="Group 4">
            <g id="Group_3" data-name="Group 3" transform="translate(18.639)">
              <g id="Group_2" data-name="Group 2" clip-path="url(#clip-path)">
                <circle id="Ellipse_1" data-name="Ellipse 1" cx="168.236" cy="168.236" r="168.236" fill="#5482ff"/>
                <circle id="Ellipse_2" data-name="Ellipse 2" cx="168.236" cy="168.236" r="168.236" transform="translate(57.652 36.412)" fill="#5444ff"/>
                <rect id="Rectangle_6" data-name="Rectangle 6" width="89.309" height="34.389" rx="17.194" transform="translate(6.972 71.991)" fill="#02ff3f"/>
                <rect id="Rectangle_7" data-name="Rectangle 7" width="153.821" height="34.389" rx="17.194" transform="translate(146.051 60.689)" fill="#02ff3f"/>
                <rect id="Rectangle_8" data-name="Rectangle 8" width="99.979" height="34.389" rx="17.194" transform="translate(183.128 159.514)" fill="#02ff3f"/>
                <rect id="Rectangle_9" data-name="Rectangle 9" width="64.612" height="34.389" rx="17.194" transform="translate(35.712 222.659)" fill="#02ff3f"/>
                <rect id="Rectangle_10" data-name="Rectangle 10" width="89.719" height="34.389" rx="17.194" transform="translate(172.166 81.949)" fill="#02ff3f"/>
                <rect id="Rectangle_11" data-name="Rectangle 11" width="89.719" height="15.022" rx="7.511" transform="translate(232.83 95.197)" fill="#5444ff"/>
                <rect id="Rectangle_12" data-name="Rectangle 12" width="137.935" height="34.389" rx="17.194" transform="translate(143.486 110.203)" fill="#02ff3f"/>
                <rect id="Rectangle_13" data-name="Rectangle 13" width="60.589" height="15.022" rx="7.511" transform="translate(131.81 95.078)" fill="#5444ff"/>
                <rect id="Rectangle_14" data-name="Rectangle 14" width="89.719" height="15.022" rx="7.511" transform="translate(188.592 144.6)" fill="#02ff3f"/>
                <rect id="Rectangle_15" data-name="Rectangle 15" width="89.719" height="15.022" rx="7.511" transform="translate(250.283 144.575)" fill="#5444ff"/>
                <rect id="Rectangle_16" data-name="Rectangle 16" width="60.589" height="15.022" rx="7.511" transform="translate(157.603 144.584)" fill="#5444ff"/>
                <rect id="Rectangle_17" data-name="Rectangle 17" width="118.151" height="41.573" rx="20.787" transform="translate(179.313 262.17)" fill="#02ff3f"/>
                <rect id="Rectangle_18" data-name="Rectangle 18" width="88.227" height="34.389" rx="17.194" transform="translate(65.978 166.205)" fill="#02ff3f"/>
                <rect id="Rectangle_19" data-name="Rectangle 19" width="34.389" height="34.389" rx="17.194" transform="translate(41.504 126.909)" fill="#02ff3f"/>
                <rect id="Rectangle_20" data-name="Rectangle 20" width="20.071" height="87.694" rx="10.035" transform="matrix(0.515, -0.857, 0.857, 0.515, 273.677, 89.928)" fill="#cef6ff"/>
                <rect id="Rectangle_21" data-name="Rectangle 21" width="20.071" height="87.694" rx="10.035" transform="matrix(0.515, -0.857, 0.857, 0.515, 271.78, 55.252)" fill="#cef6ff"/>
                <rect id="Rectangle_22" data-name="Rectangle 22" width="20.071" height="143.455" rx="10.035" transform="matrix(0.515, -0.857, 0.857, 0.515, 230.808, 102.314)" fill="#cef6ff"/>
                <rect id="Rectangle_23" data-name="Rectangle 23" width="15.475" height="21.425" transform="translate(315.667 132.082) rotate(-60)" fill="#cef6ff"/>
                <rect id="Rectangle_24" data-name="Rectangle 24" width="12.592" height="47.503" rx="6.296" transform="matrix(0.515, -0.857, 0.857, 0.515, 283.643, 110.628)" fill="#5444ff"/>
                <rect id="Rectangle_25" data-name="Rectangle 25" width="20.071" height="103.56" rx="10.035" transform="matrix(0.515, -0.857, 0.857, 0.515, 253.882, 155.292)" fill="#cef6ff"/>
                <rect id="Rectangle_26" data-name="Rectangle 26" width="20.071" height="143.455" rx="10.035" transform="matrix(0.515, -0.857, 0.857, 0.515, 211.013, 167.678)" fill="#cef6ff"/>
                <rect id="Rectangle_27" data-name="Rectangle 27" width="15.475" height="41.941" transform="translate(295.872 197.446) rotate(-60)" fill="#cef6ff"/>
                <rect id="Rectangle_28" data-name="Rectangle 28" width="12.592" height="27.102" rx="6.296" transform="matrix(0.515, -0.857, 0.857, 0.515, 281.338, 186.495)" fill="#5444ff"/>
                <rect id="Rectangle_29" data-name="Rectangle 29" width="20.071" height="142.968" rx="10.035" transform="matrix(0.515, -0.857, 0.857, 0.515, 198.311, 196.707)" fill="#cef6ff"/>
                <rect id="Rectangle_30" data-name="Rectangle 30" width="20.071" height="111.766" rx="10.035" transform="matrix(0.515, -0.857, 0.857, 0.515, 216.395, 245.692)" fill="#cef6ff"/>
                <rect id="Rectangle_31" data-name="Rectangle 31" width="15.475" height="83.567" transform="translate(238.037 238.334) rotate(-60)" fill="#cef6ff"/>
                <rect id="Rectangle_32" data-name="Rectangle 32" width="12.592" height="38.493" rx="6.296" transform="matrix(0.515, -0.857, 0.857, 0.515, 214.626, 221.22)" fill="#5444ff"/>
                <rect id="Rectangle_33" data-name="Rectangle 33" width="20.071" height="149.126" rx="10.035" transform="matrix(0.515, -0.857, 0.857, 0.515, 133.82, 257.948)" fill="#cef6ff"/>
                <rect id="Rectangle_34" data-name="Rectangle 34" width="20.071" height="143.455" rx="10.035" transform="matrix(0.515, -0.857, 0.857, 0.515, 143.618, 301.957)" fill="#cef6ff"/>
                <rect id="Rectangle_35" data-name="Rectangle 35" width="15.475" height="37.088" transform="translate(214.912 323.894) rotate(-60)" fill="#cef6ff"/>
                <rect id="Rectangle_36" data-name="Rectangle 36" width="12.592" height="24.627" rx="6.296" transform="matrix(0.515, -0.857, 0.857, 0.515, 201.546, 313.33)" fill="#5444ff"/>
                <rect id="Rectangle_37" data-name="Rectangle 37" width="129.344" height="18.443" rx="9.222" transform="translate(48.192 321.83)" fill="#f6fffe" opacity="0.9"/>
                <rect id="Rectangle_38" data-name="Rectangle 38" width="144.133" height="18.443" rx="9.222" transform="translate(73.188 -6.14)" fill="#f6fffe" opacity="0.9"/>
              </g>
            </g>
            <path id="Path_1" data-name="Path 1" d="M807.681,836.151H805.3a16.067,16.067,0,0,0,.253-2.754h0a16.066,16.066,0,0,0-16.066-16.066H713.871A16.065,16.065,0,0,0,697.805,833.4h0a16.065,16.065,0,0,0,16.065,16.066h2.382a15.99,15.99,0,0,0,15.813,18.82h75.615a16.066,16.066,0,1,0,0-32.131Z" transform="translate(-468.636 -571.875)" fill="#f6fffe" opacity="0.9"/>
            <path id="Path_2" data-name="Path 2" d="M582.261,537.5h-2.034a20.665,20.665,0,0,0,.505-4.527h0a20.592,20.592,0,0,0-20.592-20.592H476.828a20.592,20.592,0,0,0-20.592,20.592h0a20.592,20.592,0,0,0,20.592,20.592h13.752a16.066,16.066,0,0,0,16.066,16.066h75.615a16.066,16.066,0,0,0,16.066-16.066h0A16.066,16.066,0,0,0,582.261,537.5Z" transform="translate(-408.505 -495.967)" fill="#f6fffe" opacity="0.9"/>
            <rect id="Rectangle_39" data-name="Rectangle 39" width="107.51" height="34.355" rx="17.177" transform="translate(98.486 144.809)" fill="#f6fffe" opacity="0.9"/>
            <path id="Path_3" data-name="Path 3" d="M487.931,786.354H474.582a10.462,10.462,0,0,0-10.408-9.41H403.148a10.462,10.462,0,0,0,0,20.924h15.023a10.462,10.462,0,0,0,10.408,9.41h59.351a10.462,10.462,0,1,0,0-20.924Z" transform="translate(-392.686 -561.822)" fill="#f6fffe" opacity="0.9"/>
          </g>
        </g>
      </g>
    </g>
    <g id="Group_22" data-name="Group 22" transform="translate(-1050 90.5)">
      <path id="Path_19" data-name="Path 19" d="M1563.562,243c-.731,0-1.311,4.817-1.562,7.206h3.088C1564.849,247.815,1564.292,243,1563.562,243Z" transform="translate(-194.83)" fill="#f9e575"/>
      <path id="Path_20" data-name="Path 20" d="M1655.206,448.012c0-.731-4.817-1.311-7.206-1.562v3.088C1650.391,449.3,1655.2,448.742,1655.206,448.012Z" transform="translate(-277.777 -196.228)" fill="#f9e575"/>
      <path id="Path_21" data-name="Path 21" d="M1563.526,540.206c.731,0,1.311-4.817,1.562-7.206H1562C1562.24,535.391,1562.8,540.2,1563.526,540.206Z" transform="translate(-194.83 -279.706)" fill="#f9e575"/>
      <path id="Path_22" data-name="Path 22" d="M1360,447.478c0,.731,4.817,1.311,7.206,1.562v-3.088C1364.815,446.192,1360,446.748,1360,447.478Z" transform="translate(0 -195.748)" fill="#f9e575"/>
      <path id="Path_23" data-name="Path 23" d="M.188-.3H3.281V2.8H.188Z" transform="translate(1367 250.5)" fill="#f9e575"/>
    </g>
    <g id="Group_23" data-name="Group 23" transform="translate(-731 190.5)">
      <path id="Path_19-2" data-name="Path 19" d="M1563.562,243c-.731,0-1.311,4.817-1.562,7.206h3.088C1564.849,247.815,1564.292,243,1563.562,243Z" transform="translate(-194.83)" fill="#f9e575"/>
      <path id="Path_20-2" data-name="Path 20" d="M1655.206,448.012c0-.731-4.817-1.311-7.206-1.562v3.088C1650.391,449.3,1655.2,448.742,1655.206,448.012Z" transform="translate(-277.777 -196.228)" fill="#f9e575"/>
      <path id="Path_21-2" data-name="Path 21" d="M1563.526,540.206c.731,0,1.311-4.817,1.562-7.206H1562C1562.24,535.391,1562.8,540.2,1563.526,540.206Z" transform="translate(-194.83 -279.706)" fill="#f9e575"/>
      <path id="Path_22-2" data-name="Path 22" d="M1360,447.478c0,.731,4.817,1.311,7.206,1.562v-3.088C1364.815,446.192,1360,446.748,1360,447.478Z" transform="translate(0 -195.748)" fill="#f9e575"/>
      <path id="Path_23-2" data-name="Path 23" d="M.188-.3H3.281V2.8H.188Z" transform="translate(1367 250.5)" fill="#f9e575"/>
    </g>
    <g id="Group_24" data-name="Group 24" transform="translate(-1082 310.5)">
      <path id="Path_19-3" data-name="Path 19" d="M1563.562,243c-.731,0-1.311,4.817-1.562,7.206h3.088C1564.849,247.815,1564.292,243,1563.562,243Z" transform="translate(-194.83)" fill="#f9e575"/>
      <path id="Path_20-3" data-name="Path 20" d="M1655.206,448.012c0-.731-4.817-1.311-7.206-1.562v3.088C1650.391,449.3,1655.2,448.742,1655.206,448.012Z" transform="translate(-277.777 -196.228)" fill="#f9e575"/>
      <path id="Path_21-3" data-name="Path 21" d="M1563.526,540.206c.731,0,1.311-4.817,1.562-7.206H1562C1562.24,535.391,1562.8,540.2,1563.526,540.206Z" transform="translate(-194.83 -279.706)" fill="#f9e575"/>
      <path id="Path_22-3" data-name="Path 22" d="M1360,447.478c0,.731,4.817,1.311,7.206,1.562v-3.088C1364.815,446.192,1360,446.748,1360,447.478Z" transform="translate(0 -195.748)" fill="#f9e575"/>
      <path id="Path_23-3" data-name="Path 23" d="M.188-.3H3.281V2.8H.188Z" transform="translate(1367 250.5)" fill="#f9e575"/>
    </g>
    <g id="Group_25" data-name="Group 25" transform="translate(-839 472.5)">
      <path id="Path_19-4" data-name="Path 19" d="M1563.562,243c-.731,0-1.311,4.817-1.562,7.206h3.088C1564.849,247.815,1564.292,243,1563.562,243Z" transform="translate(-194.83)" fill="#f9e575"/>
      <path id="Path_20-4" data-name="Path 20" d="M1655.206,448.012c0-.731-4.817-1.311-7.206-1.562v3.088C1650.391,449.3,1655.2,448.742,1655.206,448.012Z" transform="translate(-277.777 -196.228)" fill="#f9e575"/>
      <path id="Path_21-4" data-name="Path 21" d="M1563.526,540.206c.731,0,1.311-4.817,1.562-7.206H1562C1562.24,535.391,1562.8,540.2,1563.526,540.206Z" transform="translate(-194.83 -279.706)" fill="#f9e575"/>
      <path id="Path_22-4" data-name="Path 22" d="M1360,447.478c0,.731,4.817,1.311,7.206,1.562v-3.088C1364.815,446.192,1360,446.748,1360,447.478Z" transform="translate(0 -195.748)" fill="#f9e575"/>
      <path id="Path_23-4" data-name="Path 23" d="M.188-.3H3.281V2.8H.188Z" transform="translate(1367 250.5)" fill="#f9e575"/>
    </g>
  </g>
</svg>
