<svg xmlns="http://www.w3.org/2000/svg" width="39" height="10" viewBox="0 0 39 10">
  <g id="Group_279" data-name="Group 279" transform="translate(-629 -10907)">
    <path id="Rectangle_631" data-name="Rectangle 631" d="M5,0H20a0,0,0,0,1,0,0V10a0,0,0,0,1,0,0H5A5,5,0,0,1,0,5V5A5,5,0,0,1,5,0Z" transform="translate(629 10907)" fill="#ff6363"/>
    <path id="Rectangle_632" data-name="Rectangle 632" d="M5,0H19a0,0,0,0,1,0,0V10a0,0,0,0,1,0,0H5A5,5,0,0,1,0,5V5A5,5,0,0,1,5,0Z" transform="translate(668 10917) rotate(180)" fill="#6ba1ff"/>
  </g>
</svg>
